<svg xmlns="http://www.w3.org/2000/svg" viewBox="0 0 16 16">
  <defs>
    <linearGradient id="g" x1="0" y1="0" x2="16" y2="16" gradientUnits="userSpaceOnUse">
      <stop offset="0" stop-color="#22d3ee"/>
      <stop offset="1" stop-color="#8b5cf6"/>
    </linearGradient>
  </defs>
  <rect width="16" height="16" rx="3.6" fill="#0b0f1a"/>
  <!-- controller body -->
  <path fill="url(#g)" d="M3.45 3.66a.5.5 0 0 1 .35-.61l1.93-.52a.5.5 0 0 1 .62.39c.66-.08 1.35-.12 2.04-.12.72 0 1.44.04 2.12.13a.5.5 0 0 1 .62-.4l1.93.52a.5.5 0 0 1 .31.73q.21.14.37.3c.41.4.78 1.05 1.1 1.77.32.73.6 1.59.8 2.47.21.87.34 1.78.37 2.6.02.82-.06 1.6-.33 2.21a1.42 1.42 0 0 1-1.45.83c-.63-.07-1.11-.39-1.51-.77-.24-.23-.5-.53-.75-.82l-.21-.25c-.23-.26-.42-.36-.59-.4-.17-.03-.41-.02-.8.07-.42.09-.71.18-.97.24l-.12.04c-.2.05-.38.1-.6.14-.34.06-.83.07-1.33-.06l-.12-.04c-.26-.06-.55-.15-.97-.24-.38-.08-.63-.1-.8-.06-.17.04-.35.14-.59.4l-.21.24c-.25.3-.5.59-.75.82-.4.38-.88.71-1.51.77a1.42 1.42 0 0 1-1.45-.83c-.27-.61-.35-1.39-.33-2.21.03-.83.16-1.73.37-2.6.2-.88.49-1.74.8-2.47.32-.72.69-1.36 1.1-1.77q.16-.16.37-.3z"/>
  <!-- d-pad + face buttons (cut out in bg color) -->
  <path fill="#0b0f1a" d="M11.5 6.03a.5.5 0 1 0-1 0 .5.5 0 0 0 1 0m-1.5 1.5a.5.5 0 1 0 0-1 .5.5 0 0 0 0 1m2.5-.5a.5.5 0 1 1-1 0 .5.5 0 0 1 1 0m-1.5 1.5a.5.5 0 1 0 0-1 .5.5 0 0 0 0 1M5.5 6.5h-1V5.5a.5.5 0 0 0-1 0v1h-1a.5.5 0 1 0 0 1h1v1a.5.5 0 1 0 1 0v-1h1a.5.5 0 1 0 0-1z"/>
</svg>
